<?xml version="1.0" encoding="UTF-8" standalone="no"?>
<!-- Created with Inkscape (http://www.inkscape.org/) -->

<svg
   xmlns:dc="http://purl.org/dc/elements/1.1/"
   xmlns:cc="http://creativecommons.org/ns#"
   xmlns:rdf="http://www.w3.org/1999/02/22-rdf-syntax-ns#"
   xmlns:svg="http://www.w3.org/2000/svg"
   xmlns="http://www.w3.org/2000/svg"
   xmlns:xlink="http://www.w3.org/1999/xlink"
   xmlns:sodipodi="http://sodipodi.sourceforge.net/DTD/sodipodi-0.dtd"
   xmlns:inkscape="http://www.inkscape.org/namespaces/inkscape"
   width="210mm"
   height="297mm"
   viewBox="0 0 210 297"
   version="1.1"
   id="svg8"
   sodipodi:docname="tail_02_black.svg"
   inkscape:version="0.92.2 (5c3e80d, 2017-08-06)"
   inkscape:export-filename="C:\Users\Nick\Desktop\gameAssets\tail_01.png"
   inkscape:export-xdpi="25.27"
   inkscape:export-ydpi="25.27">
  <defs
     id="defs2">
    <linearGradient
       inkscape:collect="always"
       id="linearGradient863">
      <stop
         style="stop-color:#1d1d1d;stop-opacity:1"
         offset="0"
         id="stop859" />
      <stop
         style="stop-color:#ffffff;stop-opacity:1"
         offset="1"
         id="stop861" />
    </linearGradient>
    <inkscape:path-effect
       effect="mirror_symmetry"
       start_point="66.819314,98.713431"
       end_point="73.238332,105.12583"
       center_point="70.028823,101.91963"
       id="path-effect884"
       is_visible="true"
       mode="free"
       discard_orig_path="false"
       fuse_paths="false"
       oposite_fuse="false" />
    <inkscape:path-effect
       effect="mirror_symmetry"
       start_point="66.819314,98.713431"
       end_point="73.169524,105.05703"
       center_point="69.994419,101.88523"
       id="path-effect882"
       is_visible="true"
       mode="free"
       discard_orig_path="false"
       fuse_paths="false"
       oposite_fuse="false" />
    <inkscape:path-effect
       effect="mirror_symmetry"
       start_point="66.819314,98.713431"
       end_point="72.123072,104.01057"
       center_point="69.471193,101.362"
       id="path-effect880"
       is_visible="true"
       mode="free"
       discard_orig_path="false"
       fuse_paths="false"
       oposite_fuse="false" />
    <inkscape:path-effect
       effect="mirror_symmetry"
       start_point="56.901528,88.761221"
       end_point="81.885414,113.77292"
       center_point="69.393471,101.26707"
       id="path-effect854"
       is_visible="true"
       mode="free"
       discard_orig_path="false"
       fuse_paths="false"
       oposite_fuse="false" />
    <inkscape:path-effect
       effect="mirror_symmetry"
       start_point="56.887619,88.77512"
       end_point="81.885414,113.77292"
       center_point="69.386516,101.27402"
       id="path-effect852"
       is_visible="true"
       mode="free"
       discard_orig_path="false"
       fuse_paths="false"
       oposite_fuse="false" />
    <inkscape:path-effect
       effect="mirror_symmetry"
       start_point="57.381507,92.576301"
       end_point="63.939121,99.133915"
       center_point="60.660314,95.855108"
       id="path-effect848"
       is_visible="true"
       mode="free"
       discard_orig_path="false"
       fuse_paths="false"
       oposite_fuse="false" />
    <inkscape:path-effect
       effect="mirror_symmetry"
       start_point="55.795821,102.94466"
       end_point="49.908843,96.149989"
       center_point="52.852332,99.547325"
       id="path-effect846"
       is_visible="true"
       mode="free"
       discard_orig_path="false"
       fuse_paths="false"
       oposite_fuse="false" />
    <inkscape:path-effect
       effect="mirror_symmetry"
       start_point="56.887619,88.77512"
       end_point="66.822457,98.709958"
       center_point="61.855038,93.742539"
       id="path-effect844"
       is_visible="true"
       mode="free"
       discard_orig_path="false"
       fuse_paths="false"
       oposite_fuse="false" />
    <inkscape:path-effect
       effect="mirror_symmetry"
       start_point="54.903769,86.897226"
       end_point="79.387441,111.27494"
       center_point="67.145605,99.086083"
       id="path-effect839"
       is_visible="true"
       mode="free"
       discard_orig_path="false"
       fuse_paths="false"
       oposite_fuse="false" />
    <inkscape:path-effect
       effect="mirror_symmetry"
       start_point="39.84838,71.712532"
       end_point="81.873722,113.78457"
       center_point="60.861051,92.748551"
       id="path-effect838"
       is_visible="true"
       mode="free"
       discard_orig_path="false"
       fuse_paths="false"
       oposite_fuse="false" />
    <linearGradient
       inkscape:collect="always"
       xlink:href="#linearGradient863"
       id="linearGradient865"
       x1="253.76791"
       y1="320.64142"
       x2="352.45792"
       y2="324.30405"
       gradientUnits="userSpaceOnUse"
       spreadMethod="reflect" />
  </defs>
  <sodipodi:namedview
     id="base"
     pagecolor="#ffffff"
     bordercolor="#666666"
     borderopacity="1.0"
     inkscape:pageopacity="0.0"
     inkscape:pageshadow="2"
     inkscape:zoom="0.70710678"
     inkscape:cx="212.14"
     inkscape:cy="781.01777"
     inkscape:document-units="mm"
     inkscape:current-layer="layer3"
     showgrid="false"
     inkscape:snap-bbox="true"
     inkscape:bbox-nodes="true"
     inkscape:bbox-paths="true"
     inkscape:snap-bbox-edge-midpoints="true"
     inkscape:snap-bbox-midpoints="true"
     inkscape:object-paths="true"
     inkscape:snap-intersection-paths="true"
     inkscape:snap-smooth-nodes="true"
     inkscape:snap-midpoints="false"
     inkscape:snap-center="true"
     inkscape:snap-object-midpoints="true"
     inkscape:object-nodes="true"
     inkscape:snap-nodes="true"
     inkscape:window-width="1366"
     inkscape:window-height="705"
     inkscape:window-x="-8"
     inkscape:window-y="-8"
     inkscape:window-maximized="1" />
  <metadata
     id="metadata5">
    <rdf:RDF>
      <cc:Work
         rdf:about="">
        <dc:format>image/svg+xml</dc:format>
        <dc:type
           rdf:resource="http://purl.org/dc/dcmitype/StillImage" />
        <dc:title />
      </cc:Work>
    </rdf:RDF>
  </metadata>
  <g
     inkscape:groupmode="layer"
     id="layer1"
     inkscape:label="Layer 4"
     style="display:inline">
    <g
       style="display:inline;stroke:#000000;stroke-opacity:0"
       id="g1503"
       transform="translate(-16.757637,9.9881886)"
       inkscape:export-filename="C:\Users\Nick\Desktop\gameAssets\tail_02_black.png"
       inkscape:export-xdpi="25.27"
       inkscape:export-ydpi="25.27">
      <g
         style="display:inline;stroke:#000000;stroke-opacity:0"
         id="layer1-0"
         inkscape:label="Layer 1">
        <rect
           y="53.784729"
           x="48.643055"
           height="50"
           width="49.999996"
           id="rect815-7"
           style="fill:none;fill-opacity:1;stroke:#000000;stroke-width:0.26458332;stroke-opacity:0" />
        <path
           sodipodi:nodetypes="csc"
           inkscape:connector-curvature="0"
           id="path819-9"
           d="m 48.643055,53.78473 c 7.951269,7.951267 1e-6,-2e-6 7.951269,7.951267 l 42.048728,42.048733"
           style="fill:none;stroke:#000000;stroke-width:0.26458332px;stroke-linecap:butt;stroke-linejoin:miter;stroke-opacity:0" />
        <path
           sodipodi:nodetypes="cccc"
           inkscape:connector-curvature="0"
           id="path821-9"
           d="m 52.630382,65.699938 3.987327,-3.987326 m 0,0 3.940552,-3.940551"
           style="fill:none;stroke:#000000;stroke-width:0.26458332px;stroke-linecap:butt;stroke-linejoin:miter;stroke-opacity:0" />
        <path
           sodipodi:nodetypes="cccc"
           inkscape:connector-curvature="0"
           id="path825-3"
           d="M 52.630382,65.699938 69.679113,82.74867 M 77.673137,74.754645 60.558261,57.772061"
           style="fill:none;stroke:#000000;stroke-width:0.26458332px;stroke-linecap:butt;stroke-linejoin:miter;stroke-opacity:0" />
        <path
           sodipodi:nodetypes="cc"
           inkscape:connector-curvature="0"
           id="path837-9"
           d="m 48.643055,53.78473 11.915206,3.987331"
           style="fill:none;stroke:#000000;stroke-width:0.26458332px;stroke-linecap:butt;stroke-linejoin:miter;stroke-opacity:0" />
        <path
           sodipodi:nodetypes="cc"
           inkscape:connector-curvature="0"
           id="path841-9"
           d="m 48.643055,53.78473 3.987327,11.915208"
           style="fill:none;stroke:#000000;stroke-width:0.26458332px;stroke-linecap:butt;stroke-linejoin:miter;stroke-opacity:0" />
      </g>
      <g
         style="display:inline;stroke:#000000;stroke-opacity:0"
         inkscape:label="Layer 2"
         id="layer2">
        <path
           inkscape:connector-curvature="0"
           id="path871"
           d="M 52.630382,99.797398 69.679113,82.748669"
           style="fill:none;stroke:#000000;stroke-width:0.26458332px;stroke-linecap:butt;stroke-linejoin:miter;stroke-opacity:0" />
        <path
           inkscape:connector-curvature="0"
           id="path873"
           d="M 94.655716,57.772061 77.673136,74.754644"
           style="fill:none;stroke:#000000;stroke-width:0.26458332px;stroke-linecap:butt;stroke-linejoin:miter;stroke-opacity:0" />
        <path
           inkscape:connector-curvature="0"
           id="path826-0"
           d="M 69.115698,66.263352 98.64305,53.78473 77.673136,74.754644"
           style="display:inline;fill:none;stroke:#000000;stroke-width:0.26458332px;stroke-linecap:butt;stroke-linejoin:miter;stroke-opacity:0" />
        <path
           inkscape:connector-curvature="0"
           id="path843"
           d="m 98.64305,53.78473 -49.999995,50"
           style="display:inline;fill:none;stroke:#000000;stroke-width:0.26458332px;stroke-linecap:butt;stroke-linejoin:miter;stroke-opacity:0" />
        <path
           inkscape:connector-curvature="0"
           id="path824"
           d="M 61.154746,74.224302 48.643055,103.78473 69.679113,82.748669"
           style="display:inline;fill:none;stroke:#000000;stroke-width:0.26458332px;stroke-linecap:butt;stroke-linejoin:miter;stroke-opacity:0" />
      </g>
    </g>
  </g>
  <g
     inkscape:groupmode="layer"
     id="layer3"
     inkscape:label="Layer 3"
     style="display:inline">
    <path
       style="display:inline;opacity:1;fill:url(#linearGradient865);fill-opacity:1;stroke:#000000;stroke-width:0.25;stroke-linecap:square;stroke-linejoin:round;stroke-opacity:0;paint-order:stroke markers fill"
       d="m 239.89254,422.19283 c -3.46273,-7.08468 -5.66337,-12.03617 -10.82978,-24.36728 -5.21813,-12.45454 -6.4742,-15.25902 -9.32496,-20.82022 -4.67641,-9.12264 -9.89162,-16.65119 -16.87921,-24.36641 l -1.91681,-2.11641 14.54774,-14.54934 14.54774,-14.54934 2.52255,2.29733 c 9.3409,8.50689 19.38787,14.89949 32.56921,20.72283 2.08816,0.92252 7.5925,3.26674 12.23187,5.20937 12.99609,5.44182 27.97416,12.25326 29.53753,13.43251 0.54771,0.41314 0.31944,0.48653 -7.75086,2.49212 l -8.3152,2.06644 -14.99273,-2.00705 c -8.246,-1.10388 -15.12585,-2.00705 -15.28854,-2.00705 -0.16269,0 -2.11046,2.01047 -4.32837,4.46771 -2.31333,2.56296 -6.0009,6.24737 -8.64944,8.64204 -3.79922,3.43503 -4.59603,4.27093 -4.49908,4.71979 0.0648,0.3 0.98295,7.13259 2.04033,15.18352 l 1.92252,14.63806 -2.06019,8.42444 c -1.13311,4.63344 -2.08766,8.42444 -2.12124,8.42444 -0.0336,0 -1.36696,-2.67188 -2.96308,-5.9375 z m 2.32733,-46.77236 c 1.13321,-0.91762 0.56116,-3.43004 -1.34681,-5.91514 -3.41114,-4.44293 -10.07931,-10.26702 -19.50584,-17.03673 -3.25474,-2.3374 -3.2662,-2.34304 -3.76016,-1.84908 -0.49396,0.49396 -0.4929,0.49911 0.34727,1.69064 6.67837,9.47113 14.04029,18.12777 18.05537,21.23069 2.74904,2.12449 5.04833,2.82042 6.21017,1.87962 z m 12.79999,-12.81859 c 2.25199,-2.71238 -4.30308,-10.20217 -17.6875,-20.20966 -6.9092,-5.16599 -6.55106,-4.94694 -7.13433,-4.36367 -0.49199,0.49199 -0.48273,0.50966 2.28576,4.36039 11.25096,15.64911 19.89113,23.39861 22.53607,20.21294 z"
       id="path853"
       inkscape:connector-curvature="0"
       transform="scale(0.26458333)"
       inkscape:export-filename="C:\Users\Nick\Desktop\gameAssets\tail_02_black.png"
       inkscape:export-xdpi="25.27"
       inkscape:export-ydpi="25.27" />
    <path
       style="display:inline;opacity:1;fill:#97ee96;fill-opacity:1;stroke:#92ff00;stroke-width:0.25;stroke-linecap:square;stroke-linejoin:round;stroke-opacity:0;paint-order:stroke markers fill"
       d="m 239.33236,374.1599 c -3.43872,-1.5799 -9.32448,-7.74191 -16.45121,-17.22335 -1.37201,-1.82533 -2.44748,-3.36586 -2.38993,-3.42341 0.15326,-0.15326 7.63267,5.53589 10.91936,8.30571 0.84089,0.70865 1.89378,1.6423 2.87842,2.54529 0.8368,0.76741 1.6243,1.51267 2.19048,2.07885 5.35407,5.35407 6.91808,9.58465 2.85288,7.71691 z"
       id="path867"
       inkscape:connector-curvature="0"
       sodipodi:nodetypes="csscssc"
       transform="scale(0.26458333)"
       inkscape:export-filename="C:\Users\Nick\Desktop\gameAssets\tail_02_black.png"
       inkscape:export-xdpi="25.27"
       inkscape:export-ydpi="25.27" />
    <path
       style="display:inline;opacity:1;fill:#95f097;fill-opacity:1;stroke:#92ff00;stroke-width:0.25;stroke-linecap:square;stroke-linejoin:round;stroke-opacity:0;paint-order:stroke markers fill"
       d="m 251.57906,361.39544 c -3.56597,-1.79681 -8.73506,-7.26912 -16.06398,-17.00631 -1.39351,-1.85141 -2.48432,-3.41553 -2.42402,-3.47583 0.13607,-0.13607 6.86807,4.94623 10.2413,7.73164 3.4472,2.84649 8.82463,8.34574 9.84708,10.07016 1.01514,1.71208 1.19768,3.24799 0.39962,3.36236 -0.27681,0.0397 -1.17681,-0.26724 -2,-0.68202 z"
       id="path869"
       inkscape:connector-curvature="0"
       transform="scale(0.26458333)"
       inkscape:export-filename="C:\Users\Nick\Desktop\gameAssets\tail_02_black.png"
       inkscape:export-xdpi="25.27"
       inkscape:export-ydpi="25.27" />
    <path
       style="display:inline;opacity:1;fill:#777777;fill-opacity:1;stroke:#92ff00;stroke-width:0.25;stroke-linecap:square;stroke-linejoin:round;stroke-opacity:0;paint-order:stroke markers fill"
       d="m 253.1227,385.17069 -6.17952,-6.18323 0.737,-0.70609 c 0.40536,-0.38836 0.8434,-0.66558 0.97343,-0.61607 0.13004,0.0495 2.93962,2.73378 6.24352,5.96503 l 6.0071,5.875 -0.80101,0.92429 -0.80101,0.92429 z"
       id="path872"
       inkscape:connector-curvature="0"
       transform="scale(0.26458333)"
       inkscape:export-filename="C:\Users\Nick\Desktop\gameAssets\tail_02_black.png"
       inkscape:export-xdpi="25.27"
       inkscape:export-ydpi="25.27" />
    <path
       style="display:inline;opacity:1;fill:#777777;fill-opacity:1;stroke:#92ff00;stroke-width:0.25;stroke-linecap:square;stroke-linejoin:round;stroke-opacity:0;paint-order:stroke markers fill"
       d="m 250.83426,387.38223 -6.24434,-6.24809 0.68562,-0.68563 0.68563,-0.68562 6.23282,6.22908 6.23282,6.22908 -0.50175,0.70464 c -0.27596,0.38755 -0.5793,0.70464 -0.6741,0.70464 -0.0948,0 -2.9823,-2.81164 -6.4167,-6.2481 z"
       id="path876"
       inkscape:connector-curvature="0"
       transform="scale(0.26458333)"
       inkscape:export-filename="C:\Users\Nick\Desktop\gameAssets\tail_02_black.png"
       inkscape:export-xdpi="25.27"
       inkscape:export-ydpi="25.27" />
    <path
       style="display:inline;opacity:1;fill:#777777;fill-opacity:1;stroke:#92ff00;stroke-width:0.25;stroke-linecap:square;stroke-linejoin:round;stroke-opacity:0;paint-order:stroke markers fill"
       d="m 250.02474,391.07597 c -4.03923,-4.04962 -5.08378,-5.23425 -5.1875,-5.88314 -0.41812,-2.61575 -0.81917,-2.86671 5.49033,3.4355 3.23388,3.23016 5.87979,5.95201 5.87979,6.04856 0,0.0966 -0.25312,0.46674 -0.5625,0.82263 l -0.5625,0.64708 z"
       id="path878"
       inkscape:connector-curvature="0"
       transform="scale(0.26458333)"
       inkscape:export-filename="C:\Users\Nick\Desktop\gameAssets\tail_02_black.png"
       inkscape:export-xdpi="25.27"
       inkscape:export-ydpi="25.27" />
    <path
       style="display:inline;opacity:1;fill:#777777;fill-opacity:1;stroke:#92ff00;stroke-width:0.25;stroke-linecap:square;stroke-linejoin:round;stroke-opacity:0;paint-order:stroke markers fill"
       d="m 249.29081,394.28841 c -3.37579,-3.63576 -3.79234,-4.18122 -3.95093,-5.17367 l -0.17727,-1.10941 4.50722,4.48226 c 3.59319,3.57329 4.46236,4.56607 4.28602,4.89556 -0.63529,1.18705 -0.77624,1.09354 -4.66504,-3.09474 z"
       id="path880"
       inkscape:connector-curvature="0"
       transform="scale(0.26458333)"
       inkscape:export-filename="C:\Users\Nick\Desktop\gameAssets\tail_02_black.png"
       inkscape:export-xdpi="25.27"
       inkscape:export-ydpi="25.27" />
    <path
       style="display:inline;opacity:1;fill:#777777;fill-opacity:1;stroke:#92ff00;stroke-width:0.25;stroke-linecap:square;stroke-linejoin:round;stroke-opacity:0;paint-order:stroke markers fill"
       d="m 262.86017,375.49473 c -6.34557,-6.52985 -6.20268,-6.31304 -4.92343,-7.47074 0.52496,-0.47508 0.53257,-0.469 5.46066,4.36 2.71423,2.65966 5.51926,5.40625 6.2334,6.10354 l 1.29844,1.2678 -1.07053,0.91979 -1.07052,0.91978 z"
       id="path882"
       inkscape:connector-curvature="0"
       transform="scale(0.26458333)"
       inkscape:export-filename="C:\Users\Nick\Desktop\gameAssets\tail_02_black.png"
       inkscape:export-xdpi="25.27"
       inkscape:export-ydpi="25.27" />
    <path
       style="display:inline;opacity:1;fill:#777777;fill-opacity:1;stroke:#92ff00;stroke-width:0.25;stroke-linecap:square;stroke-linejoin:round;stroke-opacity:0;paint-order:stroke markers fill"
       d="m 265.56721,372.61517 -6.22729,-6.23103 0.62498,-0.62498 0.62498,-0.62499 6.2863,6.31058 6.28629,6.31058 -0.68399,0.54543 -0.68398,0.54544 z"
       id="path884"
       inkscape:connector-curvature="0"
       transform="scale(0.26458333)"
       inkscape:export-filename="C:\Users\Nick\Desktop\gameAssets\tail_02_black.png"
       inkscape:export-xdpi="25.27"
       inkscape:export-ydpi="25.27" />
    <path
       style="display:inline;opacity:1;fill:#777777;fill-opacity:1;stroke:#92ff00;stroke-width:0.25;stroke-linecap:square;stroke-linejoin:round;stroke-opacity:0;paint-order:stroke markers fill"
       d="m 268.18837,370.97053 -5.85601,-5.87577 1.5,0.16781 1.5,0.16782 5.0625,5.03518 c 2.78438,2.76935 5.05628,5.09246 5.04867,5.16247 -0.008,0.07 -0.32553,0.37276 -0.7065,0.67278 l -0.69266,0.54548 z"
       id="path886"
       inkscape:connector-curvature="0"
       transform="scale(0.26458333)"
       inkscape:export-filename="C:\Users\Nick\Desktop\gameAssets\tail_02_black.png"
       inkscape:export-xdpi="25.27"
       inkscape:export-ydpi="25.27" />
    <path
       style="display:inline;opacity:1;fill:#777777;fill-opacity:1;stroke:#92ff00;stroke-width:0.25;stroke-linecap:square;stroke-linejoin:round;stroke-opacity:0;paint-order:stroke markers fill"
       d="m 271.95736,370.25533 c -4.12869,-4.13376 -4.32658,-4.375 -3.58869,-4.375 0.65449,0 1.38274,0.55143 4.49732,3.40539 2.044,1.87297 3.93428,3.61275 4.2006,3.86618 0.47082,0.44802 0.47148,0.47488 0.0238,0.96961 -0.25327,0.27985 -0.52863,0.50882 -0.61191,0.50882 -0.0833,0 -2.11777,-1.96875 -4.52108,-4.375 z"
       id="path888"
       inkscape:connector-curvature="0"
       transform="scale(0.26458333)"
       inkscape:export-filename="C:\Users\Nick\Desktop\gameAssets\tail_02_black.png"
       inkscape:export-xdpi="25.27"
       inkscape:export-ydpi="25.27" />
    <path
       style="display:inline;fill:none;stroke:#000000;stroke-width:0.26458332px;stroke-linecap:butt;stroke-linejoin:miter;stroke-opacity:1"
       d="m 52.921476,92.736858 c 6.268591,6.551064 6.364999,11.355022 11.386102,21.036062 l 1.222381,-4.9242 -1.061525,-8.01315 2.354357,-2.125277 M 60.858175,84.808968 c 6.544099,6.275862 11.347947,6.377605 21.023405,11.409456 l -4.925555,1.216912 -8.011966,-1.070423 -2.12789,2.351995"
       id="path826"
       inkscape:connector-curvature="0"
       sodipodi:nodetypes="ccccc"
       inkscape:path-effect="#path-effect838"
       inkscape:original-d="m 52.921476,92.736858 c 6.268591,6.551064 6.364999,11.355022 11.386102,21.036062 l 1.222381,-4.9242 -1.061525,-8.01315 2.354357,-2.125277"
       inkscape:export-filename="C:\Users\Nick\Desktop\gameAssets\tail_02_black.png"
       inkscape:export-xdpi="25.27"
       inkscape:export-ydpi="25.27" />
    <path
       style="display:inline;fill:none;stroke:#000000;stroke-width:0.26458332px;stroke-linecap:butt;stroke-linejoin:miter;stroke-opacity:1"
       d="m 52.921476,92.736857 7.960103,-7.951261"
       id="path840"
       inkscape:connector-curvature="0"
       inkscape:export-filename="C:\Users\Nick\Desktop\gameAssets\tail_02_black.png"
       inkscape:export-xdpi="25.27"
       inkscape:export-ydpi="25.27" />
    <path
       style="display:inline;fill:none;stroke:#000000;stroke-width:0.26458332px;stroke-linecap:butt;stroke-linejoin:miter;stroke-opacity:1"
       d="m 57.579946,92.807811 c 5.451139,7.778899 6.416145,6.383074 6.416145,6.383074 M 57.613017,92.77474 c 7.778899,5.451139 6.383074,6.416145 6.383074,6.416145 m -3.04873,-9.746744 c 7.772829,5.45979 6.375931,6.423242 6.375931,6.423242 m -6.409039,-6.390208 c 5.442481,7.784959 6.409039,6.390208 6.409039,6.390208"
       id="path842"
       inkscape:connector-curvature="0"
       sodipodi:nodetypes="cc"
       inkscape:path-effect="#path-effect848;#path-effect854"
       inkscape:original-d="m 57.579946,92.807811 c 5.451139,7.778899 6.416145,6.383074 6.416145,6.383074"
       inkscape:export-filename="C:\Users\Nick\Desktop\gameAssets\tail_02_black.png"
       inkscape:export-xdpi="25.27"
       inkscape:export-ydpi="25.27" />
    <g
       style="display:inline"
       id="g863"
       inkscape:export-filename="C:\Users\Nick\Desktop\gameAssets\tail_02_black.png"
       inkscape:export-xdpi="25.27"
       inkscape:export-ydpi="25.27">
      <g
         id="g872">
        <g
           id="g878">
          <path
             style="display:inline;fill:none;stroke:#000000;stroke-width:0.26458332px;stroke-linecap:butt;stroke-linejoin:miter;stroke-opacity:1"
             d="m 64.79657,103.31257 2.16711,2.33651 2.299963,-2.59762 -3.484222,-3.399318 m 5.582443,-2.933402 2.345887,2.156956 -2.58762,2.311204 -3.414398,-3.469443"
             id="path836"
             inkscape:connector-curvature="0"
             sodipodi:nodetypes="cccc"
             inkscape:path-effect="#path-effect839"
             inkscape:original-d="m 64.79657,103.31257 2.16711,2.33651 2.299963,-2.59762 -3.484222,-3.399318" />
          <path
             style="display:inline;fill:none;stroke:#000000;stroke-width:0.26458332px;stroke-linecap:butt;stroke-linejoin:miter;stroke-opacity:1"
             d="m 64.468432,100.83557 3.583932,3.58393 m 0.88664,-8.059161 3.587661,3.580197"
             id="path856"
             inkscape:connector-curvature="0"
             inkscape:path-effect="#path-effect882"
             inkscape:original-d="m 64.468432,100.83557 3.583932,3.58393" />
          <path
             style="display:inline;fill:none;stroke:#000000;stroke-width:0.26458332px;stroke-linecap:butt;stroke-linejoin:miter;stroke-opacity:1"
             d="m 65.082964,100.28083 3.518501,3.5185 m -0.216921,-6.824205 3.522891,3.514105"
             id="path858"
             inkscape:connector-curvature="0"
             inkscape:path-effect="#path-effect880"
             inkscape:original-d="m 65.082964,100.28083 3.518501,3.5185" />
          <path
             inkscape:connector-curvature="0"
             id="path860"
             d="m 67.500084,105.04325 -2.852068,-2.85207 m 8.501816,-2.80351 -2.85501,-2.849124"
             style="fill:none;stroke:#000000;stroke-width:0.26458332px;stroke-linecap:butt;stroke-linejoin:miter;stroke-opacity:1"
             inkscape:path-effect="#path-effect884"
             inkscape:original-d="m 67.500084,105.04325 -2.852068,-2.85207" />
        </g>
      </g>
    </g>
  </g>
</svg>
