<?xml version="1.0" encoding="UTF-8" standalone="no"?>
<!-- Created with Inkscape (http://www.inkscape.org/) -->

<svg
   xmlns:dc="http://purl.org/dc/elements/1.1/"
   xmlns:cc="http://creativecommons.org/ns#"
   xmlns:rdf="http://www.w3.org/1999/02/22-rdf-syntax-ns#"
   xmlns:svg="http://www.w3.org/2000/svg"
   xmlns="http://www.w3.org/2000/svg"
   xmlns:xlink="http://www.w3.org/1999/xlink"
   xmlns:sodipodi="http://sodipodi.sourceforge.net/DTD/sodipodi-0.dtd"
   xmlns:inkscape="http://www.inkscape.org/namespaces/inkscape"
   width="210mm"
   height="297mm"
   viewBox="0 0 210 297"
   version="1.1"
   id="svg8"
   inkscape:version="0.92.2 (5c3e80d, 2017-08-06)"
   sodipodi:docname="cockpit_02_orange.svg"
   inkscape:export-filename="C:\Users\Nick\Desktop\gameAssets\base_body.png"
   inkscape:export-xdpi="25.27"
   inkscape:export-ydpi="25.27">
  <defs
     id="defs2">
    <linearGradient
       inkscape:collect="always"
       id="linearGradient856">
      <stop
         style="stop-color:#b86700;stop-opacity:1"
         offset="0"
         id="stop852" />
      <stop
         style="stop-color:#ffffff;stop-opacity:1"
         offset="1"
         id="stop854" />
    </linearGradient>
    <inkscape:path-effect
       effect="mirror_symmetry"
       start_point="49.31683,54.458505"
       end_point="56.594322,61.735999"
       center_point="52.955576,58.097252"
       id="path-effect4613"
       is_visible="true"
       mode="free"
       discard_orig_path="false"
       fuse_paths="false"
       oposite_fuse="false" />
    <inkscape:path-effect
       effect="mirror_symmetry"
       start_point="50.73914,55.880814"
       end_point="56.594324,61.735996"
       center_point="53.666732,58.808405"
       id="path-effect4611"
       is_visible="true"
       mode="free"
       discard_orig_path="false"
       fuse_paths="false"
       oposite_fuse="false" />
    <inkscape:path-effect
       effect="mirror_symmetry"
       start_point="50.740444,55.882118"
       end_point="56.594324,61.735997"
       center_point="53.667384,58.809057"
       id="path-effect4609"
       is_visible="true"
       mode="free"
       discard_orig_path="false"
       fuse_paths="false"
       oposite_fuse="false" />
    <inkscape:path-effect
       effect="skeletal"
       id="path-effect4607"
       is_visible="true"
       pattern="M -0.13229105,-1.5643921 H 0.86770888"
       copytype="single_stretched"
       prop_scale="-1000000"
       scale_y_rel="true"
       spacing="0"
       normal_offset="0"
       tang_offset="0"
       prop_units="false"
       vertical_pattern="false"
       fuse_tolerance="0" />
    <inkscape:path-effect
       fuse_tolerance="0"
       vertical_pattern="false"
       prop_units="false"
       tang_offset="0"
       normal_offset="0"
       spacing="0"
       scale_y_rel="true"
       prop_scale="-1000000"
       copytype="single_stretched"
       pattern="m -2.1872542,-1.58478 h 1"
       is_visible="true"
       id="path-effect4603"
       effect="skeletal" />
    <inkscape:path-effect
       effect="skeletal"
       id="path-effect4597"
       is_visible="true"
       pattern="M -0.99218751,-0.23151043 H 0.00781246"
       copytype="single_stretched"
       prop_scale="-1000000"
       scale_y_rel="true"
       spacing="0"
       normal_offset="0"
       tang_offset="0"
       prop_units="false"
       vertical_pattern="false"
       fuse_tolerance="0" />
    <inkscape:path-effect
       effect="skeletal"
       id="path-effect4522"
       is_visible="true"
       pattern="M 0,0 H 1"
       copytype="single_stretched"
       prop_scale="1"
       scale_y_rel="false"
       spacing="0"
       normal_offset="0"
       tang_offset="0"
       prop_units="false"
       vertical_pattern="false"
       fuse_tolerance="0" />
    <inkscape:path-effect
       effect="skeletal"
       id="path-effect825"
       is_visible="true"
       pattern="M 0,0 H 1"
       copytype="single_stretched"
       prop_scale="1"
       scale_y_rel="false"
       spacing="0"
       normal_offset="0"
       tang_offset="0"
       prop_units="false"
       vertical_pattern="false"
       fuse_tolerance="0" />
    <inkscape:path-effect
       effect="mirror_symmetry"
       start_point="56.594322,61.736"
       end_point="61.622328,66.773692"
       center_point="59.108325,64.254846"
       id="path-effect833"
       is_visible="true"
       mode="free"
       discard_orig_path="false"
       fuse_paths="false"
       oposite_fuse="false" />
    <linearGradient
       inkscape:collect="always"
       xlink:href="#linearGradient856"
       id="linearGradient858"
       x1="191.75002"
       y1="253.51965"
       x2="166.37502"
       y2="224.14465"
       gradientUnits="userSpaceOnUse" />
  </defs>
  <sodipodi:namedview
     id="base"
     pagecolor="#ffffff"
     bordercolor="#666666"
     borderopacity="1.0"
     inkscape:pageopacity="0.0"
     inkscape:pageshadow="2"
     inkscape:zoom="0.49999998"
     inkscape:cx="400.96516"
     inkscape:cy="319.28014"
     inkscape:document-units="mm"
     inkscape:current-layer="layer2"
     showgrid="false"
     inkscape:snap-bbox="true"
     inkscape:bbox-nodes="true"
     inkscape:bbox-paths="true"
     inkscape:snap-bbox-edge-midpoints="true"
     inkscape:snap-bbox-midpoints="true"
     inkscape:object-paths="true"
     inkscape:snap-intersection-paths="true"
     inkscape:snap-smooth-nodes="true"
     inkscape:snap-midpoints="true"
     inkscape:snap-center="true"
     inkscape:snap-object-midpoints="true"
     inkscape:object-nodes="true"
     inkscape:snap-nodes="true"
     inkscape:window-width="1366"
     inkscape:window-height="705"
     inkscape:window-x="-8"
     inkscape:window-y="-8"
     inkscape:window-maximized="1" />
  <metadata
     id="metadata5">
    <rdf:RDF>
      <cc:Work
         rdf:about="">
        <dc:format>image/svg+xml</dc:format>
        <dc:type
           rdf:resource="http://purl.org/dc/dcmitype/StillImage" />
        <dc:title />
      </cc:Work>
    </rdf:RDF>
  </metadata>
  <g
     inkscape:label="Layer 1"
     inkscape:groupmode="layer"
     id="layer1"
     style="display:inline">
    <rect
       style="fill:none;fill-opacity:1;stroke:#000000;stroke-width:0.26458332;stroke-opacity:0"
       id="rect815"
       width="49.999996"
       height="50"
       x="48.643055"
       y="53.784729"
       inkscape:export-filename="C:\Users\Nick\Desktop\gameAssets\cockpit_02_orange.png"
       inkscape:export-xdpi="25.27"
       inkscape:export-ydpi="25.27" />
    <path
       style="fill:none;stroke:#000000;stroke-width:0.26458332px;stroke-linecap:butt;stroke-linejoin:miter;stroke-opacity:0"
       d="m 48.643055,53.78473 c 7.951269,7.951267 1e-6,-2e-6 7.951269,7.951267 l 42.048728,42.048733"
       id="path819"
       inkscape:connector-curvature="0"
       sodipodi:nodetypes="csc"
       inkscape:export-filename="C:\Users\Nick\Desktop\gameAssets\cockpit_02_orange.png"
       inkscape:export-xdpi="25.27"
       inkscape:export-ydpi="25.27" />
    <path
       style="fill:none;stroke:#000000;stroke-width:0.26458332px;stroke-linecap:butt;stroke-linejoin:miter;stroke-opacity:0"
       d="m 98.64305,53.78473 -49.999995,50"
       id="path843"
       inkscape:connector-curvature="0"
       inkscape:export-filename="C:\Users\Nick\Desktop\gameAssets\cockpit_02_orange.png"
       inkscape:export-xdpi="25.27"
       inkscape:export-ydpi="25.27" />
    <path
       style="display:inline;fill:none;stroke:#000000;stroke-width:0.26458332px;stroke-linecap:butt;stroke-linejoin:miter;stroke-opacity:0"
       d="M 52.630382,65.699938 69.679113,82.74867 M 77.673137,74.754645 60.558261,57.772061"
       id="path825"
       inkscape:connector-curvature="0"
       sodipodi:nodetypes="cccc"
       inkscape:export-filename="C:\Users\Nick\Desktop\gameAssets\cockpit_02_orange.png"
       inkscape:export-xdpi="25.27"
       inkscape:export-ydpi="25.27" />
    <path
       style="display:inline;fill:none;stroke:#000000;stroke-width:0.26458332px;stroke-linecap:butt;stroke-linejoin:miter;stroke-opacity:0"
       d="m 69.679113,82.748669 7.994023,-7.994025"
       id="path824"
       inkscape:connector-curvature="0"
       inkscape:export-filename="C:\Users\Nick\Desktop\gameAssets\cockpit_02_orange.png"
       inkscape:export-xdpi="25.27"
       inkscape:export-ydpi="25.27" />
    <path
       style="display:inline;fill:none;stroke:#000000;stroke-width:0.26458332px;stroke-linecap:butt;stroke-linejoin:miter;stroke-opacity:0"
       d="m 52.630382,65.699938 7.927879,-7.927877"
       id="path826"
       inkscape:connector-curvature="0"
       inkscape:export-filename="C:\Users\Nick\Desktop\gameAssets\cockpit_02_orange.png"
       inkscape:export-xdpi="25.27"
       inkscape:export-ydpi="25.27" />
  </g>
  <g
     inkscape:groupmode="layer"
     id="layer2"
     inkscape:label="Layer 2"
     style="display:inline">
    <path
       style="fill:none;stroke:#000000;stroke-width:0.26458332px;stroke-linecap:butt;stroke-linejoin:miter;stroke-opacity:1"
       d="M 52.630382,65.699938 C 44.899201,57.55619 53.386365,50.24923 60.558261,57.772061"
       id="path827"
       inkscape:connector-curvature="0"
       sodipodi:nodetypes="cc"
       inkscape:export-filename="C:\Users\Nick\Desktop\gameAssets\cockpit_02_orange.png"
       inkscape:export-xdpi="25.27"
       inkscape:export-ydpi="25.27" />
    <path
       style="fill:none;stroke:#000000;stroke-width:0.26458332px;stroke-linecap:butt;stroke-linejoin:miter;stroke-opacity:0.06074763"
       d="m 60.558261,57.772061 -7.927879,7.927877"
       id="path829"
       inkscape:connector-curvature="0"
       inkscape:export-filename="C:\Users\Nick\Desktop\gameAssets\cockpit_02_orange.png"
       inkscape:export-xdpi="25.27"
       inkscape:export-ydpi="25.27" />
    <path
       sodipodi:nodetypes="cc"
       inkscape:connector-curvature="0"
       id="path823"
       d="M 52.630382,65.699938 C 44.899201,57.55619 53.386365,50.24923 60.558261,57.772061"
       style="fill:none;stroke:#000000;stroke-width:0.26458332px;stroke-linecap:butt;stroke-linejoin:miter;stroke-opacity:1"
       inkscape:export-filename="C:\Users\Nick\Desktop\gameAssets\cockpit_02_orange.png"
       inkscape:export-xdpi="25.27"
       inkscape:export-ydpi="25.27" />
    <path
       style="display:inline;opacity:1;fill:none;fill-opacity:0;stroke:#000000;stroke-width:0.26499999;stroke-linecap:square;stroke-linejoin:round;stroke-miterlimit:4;stroke-dasharray:none;stroke-opacity:1;paint-order:stroke markers fill"
       d="m 52.994235,61.957894 -1.294563,0.477385 -0.364108,-0.987377 1.294564,-0.477387 z m 3.821986,-3.821987 0.477385,-1.294563 -0.987377,-0.364107 -0.477387,1.294564 z"
       id="rect4540"
       inkscape:connector-curvature="0"
       inkscape:path-effect="#path-effect4609"
       inkscape:original-d="m 52.994235,61.957894 -1.294563,0.477385 -0.364108,-0.987377 1.294564,-0.477387 z"
       inkscape:export-filename="C:\Users\Nick\Desktop\gameAssets\cockpit_02_orange.png"
       inkscape:export-xdpi="25.27"
       inkscape:export-ydpi="25.27" />
    <path
       inkscape:connector-curvature="0"
       id="path4601"
       d="m 52.566156,60.695465 -1.37974,0.01036 -0.0079,-1.052344 1.379741,-0.01036 z m 2.987636,-2.987637 0.01036,-1.37974 -1.052344,-0.0079 -0.01036,1.379741 z"
       style="display:inline;opacity:1;fill:none;fill-opacity:0;stroke:#000000;stroke-width:0.26499999;stroke-linecap:square;stroke-linejoin:round;stroke-miterlimit:4;stroke-dasharray:none;stroke-opacity:1;paint-order:stroke markers fill"
       inkscape:path-effect="#path-effect4611"
       inkscape:original-d="m 52.566156,60.695465 -1.37974,0.01036 -0.0079,-1.052344 1.379741,-0.01036 z"
       inkscape:export-filename="C:\Users\Nick\Desktop\gameAssets\cockpit_02_orange.png"
       inkscape:export-xdpi="25.27"
       inkscape:export-ydpi="25.27" />
    <path
       style="display:inline;opacity:1;fill:none;fill-opacity:0;stroke:#000000;stroke-width:0.26499999;stroke-linecap:square;stroke-linejoin:round;stroke-miterlimit:4;stroke-dasharray:none;stroke-opacity:1;paint-order:stroke markers fill"
       d="m 51.501532,57.928876 1.323313,0.390677 -0.297974,1.009309 0,0 -1.323314,-0.39068 0,0 z m 1.285668,-1.285668 0.390677,1.323313 1.009309,-0.297974 0,0 -0.390679,-1.323314 -10e-7,0 z"
       id="path4605"
       inkscape:path-effect="#path-effect4607;#path-effect4613"
       inkscape:original-d="m 51.501532,57.928876 1.323313,0.390677 -0.297974,1.009309 -1.323314,-0.39068 z"
       inkscape:connector-curvature="0"
       inkscape:export-filename="C:\Users\Nick\Desktop\gameAssets\cockpit_02_orange.png"
       inkscape:export-xdpi="25.27"
       inkscape:export-ydpi="25.27" />
    <path
       style="fill:none;stroke:#000000;stroke-width:0.26458332px;stroke-linecap:butt;stroke-linejoin:miter;stroke-opacity:1"
       d="m 51.585484,57.609948 0.839224,-0.839224 0.291232,1.086888 z"
       id="path4615"
       inkscape:connector-curvature="0"
       inkscape:export-filename="C:\Users\Nick\Desktop\gameAssets\cockpit_02_orange.png"
       inkscape:export-xdpi="25.27"
       inkscape:export-ydpi="25.27" />
    <path
       style="opacity:1;fill:url(#linearGradient858);fill-opacity:1;stroke:#000000;stroke-width:0.12519684;stroke-linecap:square;stroke-linejoin:round;stroke-miterlimit:4;stroke-dasharray:none;stroke-opacity:0;paint-order:stroke markers fill"
       d="m 197.97629,246.44047 c -3.0895,-3.50179 -5.3686,-6.84095 -7.05363,-10.33439 -1.46002,-3.02693 -2.26421,-5.47065 -2.7561,-8.375 -0.2967,-1.75189 -0.29393,-5.08804 0.006,-6.75 1.27247,-7.06023 6.16333,-12.06235 13.26083,-13.56253 1.78984,-0.37832 4.6632,-0.46287 6.68751,-0.19679 5.12473,0.6736 10.25421,2.98167 15.19545,6.83737 1.19805,0.93485 4.56047,3.94065 4.74847,4.24484 0.0548,0.0886 -5.49714,5.73007 -14.45855,14.69174 -8.00111,8.00133 -14.57569,14.54366 -14.61017,14.53851 -0.0345,-0.005 -0.49323,-0.49734 -1.01942,-1.09375 z m 0.22017,-10.89615 c 1.49282,-0.54959 2.73485,-1.01988 2.76006,-1.0451 0.053,-0.053 -1.39356,-4.03526 -1.58388,-4.3602 -0.0735,-0.12546 -0.12714,-1.17067 -0.12714,-2.47696 0,-1.31878 -0.0539,-2.36061 -0.12939,-2.5017 -0.12224,-0.22841 -0.29028,-0.24178 -3.0375,-0.24178 -2.09519,0 -2.95004,0.0419 -3.05811,0.15 -0.10541,0.10541 -0.15,0.81047 -0.15,2.37212 v 2.22211 l 0.30759,0.20154 c 0.26943,0.17654 0.62213,0.19046 2.84375,0.11223 1.39489,-0.0491 2.50804,-0.0594 2.47366,-0.0229 -0.0344,0.0365 -1.10312,0.44721 -2.375,0.91266 -1.27187,0.46545 -2.38281,0.89951 -2.46875,0.96458 -0.25459,0.19276 -0.19099,0.48541 0.54095,2.48923 0.72323,1.97998 0.84631,2.22346 1.12398,2.22346 0.0911,0 1.38696,-0.44967 2.87978,-0.99926 z m 0.65102,-10.85887 c 0.26624,-0.16882 1.41622,-4.24932 1.27298,-4.51695 -0.0693,-0.12946 -0.47716,-0.33097 -0.96618,-0.47734 -0.46545,-0.13932 -1.57659,-0.46799 -2.4692,-0.73038 -0.8926,-0.2624 -1.53518,-0.49398 -1.42794,-0.51463 0.10724,-0.0206 1.20184,0.18635 2.43244,0.46 1.23061,0.27365 2.25395,0.48107 2.27409,0.46093 0.0432,-0.0432 -1.47293,-5.73474 -1.54976,-5.81763 -0.0836,-0.0902 -4.41841,4.28688 -4.41841,4.46154 0,0.0867 0.15469,0.16411 0.34375,0.17209 0.20721,0.009 0.25776,0.037 0.12725,0.0712 -0.22498,0.059 -0.23951,0.0993 -1.06308,2.95126 -0.35072,1.21453 -0.42991,1.65077 -0.32902,1.8125 0.0849,0.13613 1.05329,0.49211 2.68323,0.98635 2.691,0.81599 2.82904,0.84642 3.08985,0.68103 z m 17.26747,-7.06429 c 0.80594,-2.18785 1.00303,-2.84874 0.90446,-3.03291 -0.0824,-0.15401 -0.8112,-0.48463 -2.10622,-0.95551 -2.08614,-0.75854 -2.31347,-0.80911 -2.5082,-0.55791 -0.0666,0.0859 -0.50031,1.19687 -0.96376,2.46875 -0.46344,1.27187 -0.87267,2.34062 -0.9094,2.375 -0.0367,0.0344 -0.0407,-1.1136 -0.009,-2.55106 0.0536,-2.41658 0.0406,-2.6309 -0.17227,-2.84375 -0.20586,-0.20585 -0.45888,-0.23019 -2.3927,-0.23019 -1.51528,0 -2.2074,0.0449 -2.3125,0.15 -0.10715,0.10714 -0.15,0.9 -0.15,2.775 0,1.52366 -0.0463,2.57517 -0.11033,2.50625 -0.0607,-0.0653 -0.43168,-1.21563 -0.82444,-2.55625 -0.39275,-1.34063 -0.77187,-2.50782 -0.84247,-2.59375 -0.0706,-0.0859 -0.22201,-0.15625 -0.33644,-0.15625 -0.23269,0 -4.38846,1.21047 -4.48409,1.3061 -0.10237,0.10236 1.52142,5.47238 1.73516,5.73836 0.1977,0.24602 0.22298,0.242 2.30823,-0.36661 1.17948,-0.34425 2.18906,-0.70911 2.29155,-0.82816 0.17086,-0.19846 0.19244,-0.19425 0.32034,0.0625 0.13325,0.26751 0.20427,0.27618 2.50856,0.30625 1.30428,0.017 2.48393,0.0877 2.62143,0.15711 0.27368,0.13812 4.20328,1.60815 4.32572,1.61822 0.0416,0.003 0.53945,-1.25261 1.10622,-2.79119 z"
       id="path835"
       inkscape:connector-curvature="0"
       transform="scale(0.26458333)"
       inkscape:export-filename="C:\Users\Nick\Desktop\gameAssets\cockpit_02_orange.png"
       inkscape:export-xdpi="25.27"
       inkscape:export-ydpi="25.27" />
    <path
       style="opacity:1;fill:#acffff;fill-opacity:1;stroke:#000000;stroke-width:0.12519684;stroke-linecap:square;stroke-linejoin:round;stroke-miterlimit:4;stroke-dasharray:none;stroke-opacity:0;paint-order:stroke markers fill"
       d="m 195.6786,235.12307 c -0.0265,-0.0781 -0.24534,-0.67359 -0.48637,-1.32331 -0.24104,-0.64973 -0.41984,-1.19973 -0.39735,-1.22223 0.0225,-0.0225 0.79403,-0.31602 1.71452,-0.65228 0.92048,-0.33626 1.76463,-0.64724 1.87588,-0.69108 0.16294,-0.0642 0.29055,0.16062 0.65625,1.15618 0.24969,0.67973 0.45397,1.29128 0.45397,1.35901 0,0.18992 -3.75954,1.54299 -3.8169,1.37371 z"
       id="path837"
       inkscape:connector-curvature="0"
       transform="scale(0.26458333)"
       inkscape:export-filename="C:\Users\Nick\Desktop\gameAssets\cockpit_02_orange.png"
       inkscape:export-xdpi="25.27"
       inkscape:export-ydpi="25.27" />
    <path
       style="opacity:1;fill:#acffff;fill-opacity:1;stroke:#000000;stroke-width:0.12519684;stroke-linecap:square;stroke-linejoin:round;stroke-miterlimit:4;stroke-dasharray:none;stroke-opacity:0;paint-order:stroke markers fill"
       d="m 193.9955,227.48108 v -1.4375 h 2.0625 2.0625 v 1.35628 1.35628 l -1.1442,0.0812 c -0.62931,0.0447 -1.55744,0.0812 -2.0625,0.0812 h -0.9183 z"
       id="path839"
       inkscape:connector-curvature="0"
       transform="scale(0.26458333)"
       inkscape:export-filename="C:\Users\Nick\Desktop\gameAssets\cockpit_02_orange.png"
       inkscape:export-xdpi="25.27"
       inkscape:export-ydpi="25.27" />
    <path
       style="opacity:1;fill:#acffff;fill-opacity:1;stroke:#000000;stroke-width:0.12519684;stroke-linecap:square;stroke-linejoin:round;stroke-miterlimit:4;stroke-dasharray:none;stroke-opacity:0;paint-order:stroke markers fill"
       d="m 196.18417,222.96102 c -1.03061,-0.30852 -1.89098,-0.57809 -1.91193,-0.59904 -0.0428,-0.0428 0.69909,-2.5859 0.77713,-2.66393 0.0275,-0.0275 0.82819,0.18266 1.77931,0.46703 0.95113,0.28436 1.81929,0.54321 1.92924,0.57521 0.17588,0.0512 0.1552,0.21187 -0.17211,1.33698 -0.20461,0.70334 -0.40707,1.31613 -0.44991,1.36175 -0.0428,0.0456 -0.92112,-0.16948 -1.95173,-0.478 z"
       id="path841"
       inkscape:connector-curvature="0"
       transform="scale(0.26458333)"
       inkscape:export-filename="C:\Users\Nick\Desktop\gameAssets\cockpit_02_orange.png"
       inkscape:export-xdpi="25.27"
       inkscape:export-ydpi="25.27" />
    <path
       style="opacity:1;fill:#acffff;fill-opacity:1;stroke:#000000;stroke-width:0.12519684;stroke-linecap:square;stroke-linejoin:round;stroke-miterlimit:4;stroke-dasharray:none;stroke-opacity:0;paint-order:stroke markers fill"
       d="m 197.433,217.72139 c -0.4125,-0.097 -0.88576,-0.20819 -1.05169,-0.2471 -0.28564,-0.067 -0.25607,-0.11671 0.55563,-0.93468 0.47153,-0.47517 0.87611,-0.84516 0.89906,-0.8222 0.023,0.023 0.17542,0.52761 0.3388,1.12145 0.19818,0.72032 0.24899,1.07625 0.15263,1.0693 -0.0794,-0.006 -0.48193,-0.0898 -0.89443,-0.18677 z"
       id="path844"
       inkscape:connector-curvature="0"
       transform="scale(0.26458333)"
       inkscape:export-filename="C:\Users\Nick\Desktop\gameAssets\cockpit_02_orange.png"
       inkscape:export-xdpi="25.27"
       inkscape:export-ydpi="25.27" />
    <path
       style="opacity:1;fill:#acffff;fill-opacity:1;stroke:#000000;stroke-width:0.12519684;stroke-linecap:square;stroke-linejoin:round;stroke-miterlimit:4;stroke-dasharray:none;stroke-opacity:0;paint-order:stroke markers fill"
       d="m 201.07155,217.37392 c -0.64889,-2.15901 -0.84234,-2.85572 -0.80365,-2.89437 0.0643,-0.0643 2.63903,-0.81639 2.67283,-0.78077 0.0169,0.0178 0.28463,0.89363 0.59506,1.94637 0.39045,1.32412 0.51938,1.93061 0.41831,1.96774 -0.0804,0.0295 -0.69297,0.21685 -1.36137,0.41628 l -1.21527,0.3626 z"
       id="path846"
       inkscape:connector-curvature="0"
       transform="scale(0.26458333)"
       inkscape:export-filename="C:\Users\Nick\Desktop\gameAssets\cockpit_02_orange.png"
       inkscape:export-xdpi="25.27"
       inkscape:export-ydpi="25.27" />
    <path
       style="opacity:1;fill:#acffff;fill-opacity:1;stroke:#000000;stroke-width:0.12519684;stroke-linecap:square;stroke-linejoin:round;stroke-miterlimit:4;stroke-dasharray:none;stroke-opacity:0;paint-order:stroke markers fill"
       d="m 206.54101,216.96363 c 0.0437,-0.31897 0.0795,-1.2471 0.0795,-2.0625 v -1.48255 h 1.45602 1.45603 l -0.0803,1.03125 c -0.0442,0.56718 -0.0806,1.49531 -0.081,2.0625 l -7.4e-4,1.03125 h -1.4545 -1.45449 z"
       id="path848"
       inkscape:connector-curvature="0"
       transform="scale(0.26458333)"
       inkscape:export-filename="C:\Users\Nick\Desktop\gameAssets\cockpit_02_orange.png"
       inkscape:export-xdpi="25.27"
       inkscape:export-ydpi="25.27" />
    <path
       style="opacity:1;fill:#acffff;fill-opacity:1;stroke:#000000;stroke-width:0.12519684;stroke-linecap:square;stroke-linejoin:round;stroke-miterlimit:4;stroke-dasharray:none;stroke-opacity:0;paint-order:stroke markers fill"
       d="m 212.95247,218.48125 c -0.60805,-0.23077 -1.12804,-0.44208 -1.15553,-0.46958 -0.0275,-0.0275 0.26452,-0.89903 0.64893,-1.93675 l 0.69892,-1.88676 1.20661,0.43576 c 0.66363,0.23966 1.25633,0.48467 1.3171,0.54445 0.17391,0.17108 -1.18361,3.75217 -1.41827,3.74133 -0.10572,-0.005 -0.68972,-0.19768 -1.29776,-0.42845 z"
       id="path850"
       inkscape:connector-curvature="0"
       transform="scale(0.26458333)"
       inkscape:export-filename="C:\Users\Nick\Desktop\gameAssets\cockpit_02_orange.png"
       inkscape:export-xdpi="25.27"
       inkscape:export-ydpi="25.27" />
  </g>
</svg>
