<?xml version="1.0" encoding="UTF-8" standalone="no"?>
<!-- Created with Inkscape (http://www.inkscape.org/) -->

<svg
   xmlns:dc="http://purl.org/dc/elements/1.1/"
   xmlns:cc="http://creativecommons.org/ns#"
   xmlns:rdf="http://www.w3.org/1999/02/22-rdf-syntax-ns#"
   xmlns:svg="http://www.w3.org/2000/svg"
   xmlns="http://www.w3.org/2000/svg"
   xmlns:xlink="http://www.w3.org/1999/xlink"
   xmlns:sodipodi="http://sodipodi.sourceforge.net/DTD/sodipodi-0.dtd"
   xmlns:inkscape="http://www.inkscape.org/namespaces/inkscape"
   width="210mm"
   height="297mm"
   viewBox="0 0 210 297"
   version="1.1"
   id="svg8"
   sodipodi:docname="tail_03_black.svg"
   inkscape:version="0.92.2 (5c3e80d, 2017-08-06)"
   inkscape:export-filename="C:\Users\Nick\Desktop\gameAssets\tail_01.png"
   inkscape:export-xdpi="25.27"
   inkscape:export-ydpi="25.27">
  <defs
     id="defs2">
    <linearGradient
       id="linearGradient858"
       inkscape:collect="always">
      <stop
         id="stop854"
         offset="0"
         style="stop-color:#000000;stop-opacity:1" />
      <stop
         id="stop856"
         offset="1"
         style="stop-color:#ffffff;stop-opacity:1" />
    </linearGradient>
    <inkscape:path-effect
       effect="mirror_symmetry"
       start_point="73.50275,108.15716"
       end_point="70.871769,101.92712"
       center_point="72.18726,105.04214"
       id="path-effect851"
       is_visible="true"
       mode="free"
       discard_orig_path="false"
       fuse_paths="false"
       oposite_fuse="false" />
    <inkscape:path-effect
       effect="mirror_symmetry"
       start_point="61.801218,93.68872"
       end_point="73.926469,105.81397"
       center_point="67.863844,99.751345"
       id="path-effect850"
       is_visible="true"
       mode="free"
       discard_orig_path="false"
       fuse_paths="false"
       oposite_fuse="false" />
    <inkscape:path-effect
       effect="mirror_symmetry"
       start_point="56.885417,88.77292"
       end_point="81.885415,113.77292"
       center_point="69.385416,101.27292"
       id="path-effect846"
       is_visible="true"
       mode="free"
       discard_orig_path="false"
       fuse_paths="false"
       oposite_fuse="false" />
    <inkscape:path-effect
       effect="mirror_symmetry"
       start_point="43.354109,75.218232"
       end_point="81.885413,113.77292"
       center_point="62.619761,94.495576"
       id="path-effect838"
       is_visible="true"
       mode="free"
       discard_orig_path="false"
       fuse_paths="false"
       oposite_fuse="false" />
    <linearGradient
       inkscape:collect="always"
       xlink:href="#linearGradient858"
       id="linearGradient862"
       x1="215.0609"
       y1="335.47549"
       x2="241.92928"
       y2="308.59042"
       gradientUnits="userSpaceOnUse"
       spreadMethod="reflect" />
    <linearGradient
       inkscape:collect="always"
       xlink:href="#linearGradient858"
       id="linearGradient870"
       x1="261.29947"
       y1="381.81915"
       x2="298.31192"
       y2="418.8316"
       gradientUnits="userSpaceOnUse" />
    <linearGradient
       inkscape:collect="always"
       xlink:href="#linearGradient858"
       id="linearGradient872"
       x1="261.29947"
       y1="381.81915"
       x2="298.66547"
       y2="419.18518"
       gradientUnits="userSpaceOnUse" />
  </defs>
  <sodipodi:namedview
     id="base"
     pagecolor="#ffffff"
     bordercolor="#666666"
     borderopacity="1.0"
     inkscape:pageopacity="0.0"
     inkscape:pageshadow="2"
     inkscape:zoom="0.99999999"
     inkscape:cx="293.65292"
     inkscape:cy="485.1431"
     inkscape:document-units="mm"
     inkscape:current-layer="layer3"
     showgrid="false"
     inkscape:snap-bbox="true"
     inkscape:bbox-nodes="true"
     inkscape:bbox-paths="true"
     inkscape:snap-bbox-edge-midpoints="true"
     inkscape:snap-bbox-midpoints="true"
     inkscape:object-paths="true"
     inkscape:snap-intersection-paths="true"
     inkscape:snap-smooth-nodes="true"
     inkscape:snap-midpoints="true"
     inkscape:snap-center="true"
     inkscape:snap-object-midpoints="true"
     inkscape:object-nodes="true"
     inkscape:snap-nodes="true"
     inkscape:window-width="1366"
     inkscape:window-height="705"
     inkscape:window-x="-8"
     inkscape:window-y="-8"
     inkscape:window-maximized="1" />
  <metadata
     id="metadata5">
    <rdf:RDF>
      <cc:Work
         rdf:about="">
        <dc:format>image/svg+xml</dc:format>
        <dc:type
           rdf:resource="http://purl.org/dc/dcmitype/StillImage" />
        <dc:title />
      </cc:Work>
    </rdf:RDF>
  </metadata>
  <g
     inkscape:groupmode="layer"
     id="layer1"
     inkscape:label="Layer 4"
     style="display:inline">
    <g
       style="display:inline;stroke:#000000;stroke-opacity:0"
       id="g1503"
       transform="translate(-16.757637,9.9881886)"
       inkscape:export-filename="C:\Users\Nick\Desktop\gameAssets\tail_03_black.png"
       inkscape:export-xdpi="25.27"
       inkscape:export-ydpi="25.27">
      <g
         style="display:inline;stroke:#000000;stroke-opacity:0"
         id="layer1-0"
         inkscape:label="Layer 1">
        <rect
           y="53.784729"
           x="48.643055"
           height="50"
           width="49.999996"
           id="rect815-7"
           style="fill:none;fill-opacity:1;stroke:#000000;stroke-width:0.26458332;stroke-opacity:0" />
        <path
           sodipodi:nodetypes="csc"
           inkscape:connector-curvature="0"
           id="path819-9"
           d="m 48.643055,53.78473 c 7.951269,7.951267 1e-6,-2e-6 7.951269,7.951267 l 42.048728,42.048733"
           style="fill:none;stroke:#000000;stroke-width:0.26458332px;stroke-linecap:butt;stroke-linejoin:miter;stroke-opacity:0" />
        <path
           sodipodi:nodetypes="cccc"
           inkscape:connector-curvature="0"
           id="path821-9"
           d="m 52.630382,65.699938 3.987327,-3.987326 m 0,0 3.940552,-3.940551"
           style="fill:none;stroke:#000000;stroke-width:0.26458332px;stroke-linecap:butt;stroke-linejoin:miter;stroke-opacity:0" />
        <path
           sodipodi:nodetypes="cccc"
           inkscape:connector-curvature="0"
           id="path825-3"
           d="M 52.630382,65.699938 69.679113,82.74867 M 77.673137,74.754645 60.558261,57.772061"
           style="fill:none;stroke:#000000;stroke-width:0.26458332px;stroke-linecap:butt;stroke-linejoin:miter;stroke-opacity:0" />
        <path
           sodipodi:nodetypes="cc"
           inkscape:connector-curvature="0"
           id="path837-9"
           d="m 48.643055,53.78473 11.915206,3.987331"
           style="fill:none;stroke:#000000;stroke-width:0.26458332px;stroke-linecap:butt;stroke-linejoin:miter;stroke-opacity:0" />
        <path
           sodipodi:nodetypes="cc"
           inkscape:connector-curvature="0"
           id="path841-9"
           d="m 48.643055,53.78473 3.987327,11.915208"
           style="fill:none;stroke:#000000;stroke-width:0.26458332px;stroke-linecap:butt;stroke-linejoin:miter;stroke-opacity:0" />
      </g>
      <g
         style="display:inline;stroke:#000000;stroke-opacity:0"
         inkscape:label="Layer 2"
         id="layer2">
        <path
           inkscape:connector-curvature="0"
           id="path871"
           d="M 52.630382,99.797398 69.679113,82.748669"
           style="fill:none;stroke:#000000;stroke-width:0.26458332px;stroke-linecap:butt;stroke-linejoin:miter;stroke-opacity:0" />
        <path
           inkscape:connector-curvature="0"
           id="path873"
           d="M 94.655716,57.772061 77.673136,74.754644"
           style="fill:none;stroke:#000000;stroke-width:0.26458332px;stroke-linecap:butt;stroke-linejoin:miter;stroke-opacity:0" />
        <path
           inkscape:connector-curvature="0"
           id="path826-0"
           d="M 69.115698,66.263352 98.64305,53.78473 77.673136,74.754644"
           style="display:inline;fill:none;stroke:#000000;stroke-width:0.26458332px;stroke-linecap:butt;stroke-linejoin:miter;stroke-opacity:0" />
        <path
           inkscape:connector-curvature="0"
           id="path843"
           d="m 98.64305,53.78473 -49.999995,50"
           style="display:inline;fill:none;stroke:#000000;stroke-width:0.26458332px;stroke-linecap:butt;stroke-linejoin:miter;stroke-opacity:0" />
        <path
           inkscape:connector-curvature="0"
           id="path824"
           d="M 61.154746,74.224302 48.643055,103.78473 69.679113,82.748669"
           style="display:inline;fill:none;stroke:#000000;stroke-width:0.26458332px;stroke-linecap:butt;stroke-linejoin:miter;stroke-opacity:0" />
      </g>
    </g>
  </g>
  <g
     inkscape:groupmode="layer"
     id="layer3"
     inkscape:label="Layer 3"
     style="display:inline">
    <path
       style="fill:none;stroke:#000000;stroke-width:0.26458332px;stroke-linecap:butt;stroke-linejoin:miter;stroke-opacity:1"
       d="M 52.921476,92.736858 73.926482,105.81398 M 60.866927,84.796226 73.931303,105.80916"
       id="path826"
       inkscape:connector-curvature="0"
       sodipodi:nodetypes="cc"
       inkscape:path-effect="#path-effect838"
       inkscape:original-d="M 52.921476,92.736858 73.926482,105.81398"
       inkscape:export-filename="C:\Users\Nick\Desktop\gameAssets\tail_03_black.png"
       inkscape:export-xdpi="25.27"
       inkscape:export-ydpi="25.27" />
    <path
       style="fill:none;stroke:#000000;stroke-width:0.26458332px;stroke-linecap:butt;stroke-linejoin:miter;stroke-opacity:1"
       d="m 52.921476,92.736857 7.960103,-7.951261"
       id="path840"
       inkscape:connector-curvature="0"
       inkscape:export-filename="C:\Users\Nick\Desktop\gameAssets\tail_03_black.png"
       inkscape:export-xdpi="25.27"
       inkscape:export-ydpi="25.27" />
    <path
       style="fill:none;stroke:#000000;stroke-width:0.26458332px;stroke-linecap:butt;stroke-linejoin:miter;stroke-opacity:1"
       d="m 63.423979,99.275419 c 1.690623,26.324611 5.367382,8.879291 7.605799,4.735151 m -3.641863,-8.699087 c 26.324611,1.690625 8.879291,5.367387 4.735151,7.605797"
       id="path844"
       inkscape:connector-curvature="0"
       sodipodi:nodetypes="cc"
       inkscape:path-effect="#path-effect846"
       inkscape:original-d="m 63.423979,99.275419 c 1.690623,26.324611 5.367382,8.879291 7.605799,4.735151"
       inkscape:export-filename="C:\Users\Nick\Desktop\gameAssets\tail_03_black.png"
       inkscape:export-xdpi="25.27"
       inkscape:export-ydpi="25.27" />
    <path
       style="fill:none;stroke:#000000;stroke-width:0.26458332px;stroke-linecap:butt;stroke-linejoin:miter;stroke-opacity:1"
       d="m 64.362427,96.249928 c 1.821774,3.646028 5.99218,6.499672 9.564042,9.564042 v 0 m -9.564042,-9.564042 c 3.646028,1.821774 6.499672,5.992182 9.564042,9.564042 v 0"
       id="path848"
       inkscape:connector-curvature="0"
       sodipodi:nodetypes="ccc"
       inkscape:path-effect="#path-effect850"
       inkscape:original-d="m 64.362427,96.249928 c 1.821774,3.646028 5.99218,6.499672 9.564042,9.564042 v 0"
       inkscape:export-filename="C:\Users\Nick\Desktop\gameAssets\tail_03_black.png"
       inkscape:export-xdpi="25.27"
       inkscape:export-ydpi="25.27" />
    <path
       sodipodi:type="star"
       style="opacity:1;fill:none;fill-opacity:1;stroke:#000000;stroke-width:0.26458332;stroke-opacity:1"
       id="path849"
       sodipodi:sides="5"
       sodipodi:cx="67.039467"
       sodipodi:cy="105.76868"
       sodipodi:r1="2.7977421"
       sodipodi:r2="0.75531763"
       sodipodi:arg1="1.6892863"
       sodipodi:arg2="2.3176048"
       inkscape:flatsided="false"
       inkscape:rounded="0"
       inkscape:randomized="0"
       d="m 66.708738,108.5468 -0.182358,-2.22383 -2.231268,-0.0104 2.058634,-0.86063 -0.679655,-2.12526 1.454664,1.69193 1.811218,-1.30314 -1.159602,1.90631 1.799049,1.31988 -2.171337,-0.51377 z m 11.810765,-4.98775 -1.466835,-1.68139 1.548443,-1.60654 -2.05237,0.87547 -1.04942,-1.969111 0.198401,2.222451 -2.19702,0.38957 2.174988,0.49809 -0.308413,2.20987 1.145816,-1.91462 z"
       inkscape:transform-center-x="-0.49515363"
       inkscape:transform-center-y="-0.66615539"
       transform="rotate(-22.105391,67.716724,105.90097)"
       inkscape:path-effect="#path-effect851"
       inkscape:export-filename="C:\Users\Nick\Desktop\gameAssets\tail_03_black.png"
       inkscape:export-xdpi="25.27"
       inkscape:export-ydpi="25.27" />
    <path
       style="opacity:1;fill:url(#linearGradient862);fill-opacity:1;stroke:#92ff00;stroke-width:0.25;stroke-linecap:square;stroke-linejoin:round;stroke-opacity:0;paint-order:stroke markers fill"
       d="m 235.82526,372.0556 c -18.8375,-11.74423 -34.3625,-21.40179 -34.5,-21.46124 -0.1375,-0.0594 6.24225,-6.61231 14.17722,-14.56192 7.93497,-7.94961 14.47497,-14.40233 14.53334,-14.33938 0.40121,0.43269 42.92713,69.06009 42.84496,69.14226 -0.0571,0.0571 -1.10548,-1.10658 -2.32969,-2.586 -10.98416,-13.27397 -17.04457,-19.13017 -24.32663,-23.50693 -2.43511,-1.46358 -2.63321,-1.53873 -3.05355,-1.15832 -0.43111,0.39014 -0.42379,0.45754 0.17884,1.64678 3.35122,6.61331 10.68102,14.49441 22.72551,24.43476 4.39722,3.62904 4.55709,3.77059 4.24107,3.75502 -0.13259,-0.007 -15.65357,-9.62079 -34.49107,-21.36503 z"
       id="path842"
       inkscape:connector-curvature="0"
       transform="scale(0.26458333)"
       inkscape:export-filename="C:\Users\Nick\Desktop\gameAssets\tail_03_black.png"
       inkscape:export-xdpi="25.27"
       inkscape:export-ydpi="25.27" />
    <path
       style="opacity:1;fill:url(#linearGradient872);fill-opacity:1.0;stroke:#92ff00;stroke-width:0.25;stroke-linecap:square;stroke-linejoin:round;stroke-opacity:0;paint-order:stroke markers fill"
       d="m 249.27043,427.82819 c -2.54305,-2.13984 -4.72636,-10.65705 -6.57403,-25.64568 -0.78602,-6.37633 -2.42447,-25.41059 -2.2054,-25.62059 0.0463,-0.0444 6.16483,3.70501 13.59664,8.33208 l 13.51238,8.41286 -1.1563,2.62532 c -0.63597,1.44393 -1.36314,3.20551 -1.61593,3.91464 -0.3484,0.97729 -0.5298,1.21929 -0.7496,1 -0.15948,-0.15913 -1.85663,-0.66895 -3.77145,-1.13294 -1.91481,-0.46399 -3.5625,-0.91626 -3.66152,-1.00504 -0.099,-0.0888 0.10958,-1.8818 0.46356,-3.98448 0.35398,-2.10268 0.60375,-3.85831 0.55504,-3.9014 -0.0487,-0.0431 -0.31356,-0.14285 -0.58856,-0.2217 -0.42255,-0.12115 -0.82201,0.37748 -2.5789,3.2192 l -2.07891,3.36256 -3.49351,-1.77263 c -2.83915,-1.44061 -3.5619,-1.71589 -3.8586,-1.46965 -0.20079,0.16664 -0.36508,0.39173 -0.36508,0.50019 0,0.10846 1.11717,1.52906 2.4826,3.15689 l 2.48259,2.95969 -2.73259,2.75391 c -1.50293,1.51465 -2.7326,2.879 -2.7326,3.03189 0,0.86712 0.71052,0.75611 4.25,-0.66402 l 3.625,-1.45443 1.74595,3.47882 c 1.51827,3.02518 1.82445,3.47883 2.34792,3.47883 h 0.60196 l -0.16692,-3.0625 c -0.0918,-1.68438 -0.22892,-3.51333 -0.3047,-4.06434 l -0.13779,-1.00184 3.79817,-0.57344 c 2.089,-0.3154 3.84497,-0.52665 3.90217,-0.46946 0.12503,0.12504 -4.26846,11.71928 -5.84382,15.42158 -2.43471,5.72187 -4.57857,9.27258 -6.29845,10.43161 -1.07221,0.72256 -1.55634,0.71546 -2.44932,-0.0359 z"
       id="path845"
       inkscape:connector-curvature="0"
       transform="scale(0.26458333)"
       inkscape:export-filename="C:\Users\Nick\Desktop\gameAssets\tail_03_black.png"
       inkscape:export-xdpi="25.27"
       inkscape:export-ydpi="25.27" />
    <path
       style="opacity:1;fill:url(#linearGradient870);fill-opacity:1.0;stroke:#ba0000;stroke-width:0.25;stroke-linecap:square;stroke-linejoin:round;stroke-opacity:0;paint-order:stroke markers fill"
       d="m 264.87529,375.32222 c -4.36542,-7.02059 -8.17761,-13.14164 -8.47153,-13.60234 l -0.53441,-0.83762 1.85295,0.15572 c 1.01913,0.0856 4.10296,0.32426 6.85296,0.53027 17.93196,1.34329 32.724,3.57874 38.625,5.83722 3.23987,1.23999 5.01645,2.79367 4.6206,4.04088 -0.84068,2.64875 -6.50793,5.60699 -21.59373,11.27166 -2.52897,0.94962 -4.65165,1.67305 -4.71708,1.60762 -0.0654,-0.0654 0.13883,-1.80915 0.4539,-3.87494 0.53992,-3.54004 0.60271,-3.74924 1.09208,-3.63867 0.28558,0.0645 2.09423,0.14615 4.01923,0.1814 3.35469,0.0614 3.5,0.0433 3.5,-0.43591 0,-0.38823 -0.72655,-0.87549 -3.25,-2.17965 -1.7875,-0.9238 -3.33664,-1.71205 -3.44252,-1.75167 -0.10589,-0.0396 0.47621,-1.73126 1.29355,-3.7592 1.45038,-3.59862 1.47374,-3.69378 0.97263,-3.96196 -0.45804,-0.24514 -0.81403,0.025 -3.29956,2.50344 l -2.78613,2.77823 -2.99398,-2.49666 c -1.6467,-1.37316 -3.09845,-2.46428 -3.22613,-2.42472 -0.12768,0.0396 -0.34243,0.2468 -0.47724,0.46051 -0.18427,0.29213 0.19731,1.22956 1.53752,3.77713 l 1.78262,3.38856 -3.30538,2.09672 c -2.61968,1.66176 -3.28748,2.19761 -3.21911,2.583 0.0474,0.26744 0.12585,0.52717 0.17423,0.57716 0.0484,0.05 1.80956,-0.18805 3.91373,-0.52899 2.10417,-0.34094 3.88464,-0.52897 3.95659,-0.41784 0.072,0.11112 0.50675,1.75542 0.96621,3.65399 0.45945,1.89857 0.98492,3.57225 1.16769,3.71928 0.25842,0.20789 0.12697,0.34024 -0.5912,0.59522 -0.50794,0.18034 -2.27641,0.91041 -3.92994,1.62239 l -3.00642,1.29449 z"
       id="path847"
       inkscape:connector-curvature="0"
       transform="scale(0.26458333)"
       inkscape:export-filename="C:\Users\Nick\Desktop\gameAssets\tail_03_black.png"
       inkscape:export-xdpi="25.27"
       inkscape:export-ydpi="25.27" />
    <path
       style="opacity:1;fill:#00f8ac;fill-opacity:1;stroke:#92ff00;stroke-width:0.25;stroke-linecap:square;stroke-linejoin:round;stroke-opacity:0;paint-order:stroke markers fill"
       d="m 279.86306,378.6053 c -0.55164,-2.26388 -0.80525,-2.92261 -1.125,-2.922 -0.22704,4.5e-4 -1.4099,0.17521 -2.62859,0.38838 -1.21868,0.21317 -2.26552,0.33785 -2.32632,0.27705 -0.0608,-0.0608 0.85638,-0.70348 2.03815,-1.4282 1.18177,-0.72472 2.20409,-1.40733 2.27182,-1.51692 0.0677,-0.10958 -0.38671,-1.21441 -1.00986,-2.45518 -0.62315,-1.24076 -1.133,-2.32414 -1.133,-2.4075 0,-0.0834 0.88836,0.58939 1.97414,1.495 1.08577,0.90562 2.0675,1.64658 2.18162,1.64658 0.11411,0 1.02575,-0.81281 2.02586,-1.80625 1.00011,-0.99343 1.81838,-1.69029 1.81838,-1.54858 0,0.14171 -0.39961,1.24867 -0.88801,2.4599 -0.48841,1.21123 -0.82335,2.2669 -0.74431,2.34594 0.079,0.079 1.23802,0.73876 2.57551,1.46604 2.40375,1.30709 2.41883,1.32106 1.30681,1.21096 -0.61875,-0.0613 -1.92784,-0.17097 -2.90909,-0.2438 l -1.78409,-0.13242 -0.46591,3.04689 -0.46591,3.0469 z"
       id="path850"
       inkscape:connector-curvature="0"
       transform="scale(0.26458333)"
       inkscape:export-filename="C:\Users\Nick\Desktop\gameAssets\tail_03_black.png"
       inkscape:export-xdpi="25.27"
       inkscape:export-ydpi="25.27" />
    <path
       style="opacity:1;fill:#00eca1;fill-opacity:1;stroke:#92ff00;stroke-width:0.25;stroke-linecap:square;stroke-linejoin:round;stroke-opacity:0;paint-order:stroke markers fill"
       d="m 253.93919,405.1589 c -0.61266,-1.25048 -1.18444,-2.3173 -1.27062,-2.37071 -0.0862,-0.0534 -1.25801,0.351 -2.60407,0.8987 -1.34606,0.54769 -2.48164,0.96155 -2.5235,0.91969 -0.0419,-0.0419 0.76434,-0.91097 1.79157,-1.93134 1.02723,-1.02037 1.86769,-1.94887 1.86769,-2.06332 0,-0.11446 -0.72531,-1.07009 -1.6118,-2.12362 -0.88649,-1.05354 -1.57322,-1.95411 -1.52607,-2.00126 0.0472,-0.0472 1.11489,0.43113 2.37273,1.06286 1.25785,0.63173 2.37666,1.09319 2.48625,1.02546 0.10959,-0.0677 0.7922,-1.09005 1.51692,-2.27182 0.72471,-1.18177 1.35505,-2.11128 1.40075,-2.06559 0.0457,0.0457 -0.10113,1.23013 -0.32628,2.63206 -0.22515,1.40192 -0.33895,2.61938 -0.25288,2.70545 0.0861,0.0861 1.37349,0.46415 2.86093,0.84017 l 2.70445,0.68369 -2.93994,0.44943 -2.93995,0.44942 0.16503,2.71717 c 0.0908,1.49444 0.11501,2.71717 0.0539,2.71717 -0.0611,0 -0.61242,-1.02313 -1.22508,-2.27361 z"
       id="path852"
       inkscape:connector-curvature="0"
       transform="scale(0.26458333)"
       inkscape:export-filename="C:\Users\Nick\Desktop\gameAssets\tail_03_black.png"
       inkscape:export-xdpi="25.27"
       inkscape:export-ydpi="25.27" />
    <path
       style="opacity:1;fill:#13ffc3;fill-opacity:1;stroke:#92ff00;stroke-width:0.25;stroke-linecap:square;stroke-linejoin:round;stroke-opacity:0;paint-order:stroke markers fill"
       d="m 268.70026,390.26309 c -10.17358,-8.45044 -16.23682,-14.26934 -20.02763,-19.22054 -2.11772,-2.76597 -3.60041,-5.06534 -3.39724,-5.26851 0.0734,-0.0734 0.78962,0.28624 1.59164,0.79915 4.05231,2.59153 9.0537,6.97327 13.6192,11.93183 2.797,3.0378 12.96403,15.04642 12.96403,15.31224 0,0.3304 -0.73928,-0.22277 -4.75,-3.55417 z"
       id="path854"
       inkscape:connector-curvature="0"
       transform="scale(0.26458333)"
       inkscape:export-filename="C:\Users\Nick\Desktop\gameAssets\tail_03_black.png"
       inkscape:export-xdpi="25.27"
       inkscape:export-ydpi="25.27" />
  </g>
</svg>
