<?xml version="1.0" encoding="UTF-8" standalone="no"?>
<!-- Created with Inkscape (http://www.inkscape.org/) -->

<svg
   xmlns:dc="http://purl.org/dc/elements/1.1/"
   xmlns:cc="http://creativecommons.org/ns#"
   xmlns:rdf="http://www.w3.org/1999/02/22-rdf-syntax-ns#"
   xmlns:svg="http://www.w3.org/2000/svg"
   xmlns="http://www.w3.org/2000/svg"
   xmlns:xlink="http://www.w3.org/1999/xlink"
   xmlns:sodipodi="http://sodipodi.sourceforge.net/DTD/sodipodi-0.dtd"
   xmlns:inkscape="http://www.inkscape.org/namespaces/inkscape"
   width="210mm"
   height="297mm"
   viewBox="0 0 210 297"
   version="1.1"
   id="svg8"
   inkscape:version="0.92.2 (5c3e80d, 2017-08-06)"
   sodipodi:docname="blast.svg">
  <defs
     id="defs2">
    <linearGradient
       inkscape:collect="always"
       id="linearGradient868">
      <stop
         style="stop-color:#f30000;stop-opacity:1"
         offset="0"
         id="stop864" />
      <stop
         style="stop-color:#2b15ff;stop-opacity:1"
         offset="1"
         id="stop866" />
    </linearGradient>
    <inkscape:perspective
       sodipodi:type="inkscape:persp3d"
       inkscape:vp_x="0 : 148.5 : 1"
       inkscape:vp_y="0 : 1000 : 0"
       inkscape:vp_z="210 : 148.5 : 1"
       inkscape:persp3d-origin="105 : 99 : 1"
       id="perspective814" />
    <radialGradient
       inkscape:collect="always"
       xlink:href="#linearGradient868"
       id="radialGradient870"
       cx="321.14643"
       cy="630.76149"
       fx="321.14643"
       fy="630.76149"
       r="164.77389"
       gradientTransform="matrix(1,0,0,0.98117333,0,11.875137)"
       gradientUnits="userSpaceOnUse" />
  </defs>
  <sodipodi:namedview
     id="base"
     pagecolor="#ffffff"
     bordercolor="#666666"
     borderopacity="1.0"
     inkscape:pageopacity="0.0"
     inkscape:pageshadow="2"
     inkscape:zoom="0.7"
     inkscape:cx="373.09332"
     inkscape:cy="553.17735"
     inkscape:document-units="mm"
     inkscape:current-layer="layer1"
     showgrid="false"
     inkscape:window-width="1366"
     inkscape:window-height="705"
     inkscape:window-x="-8"
     inkscape:window-y="-8"
     inkscape:window-maximized="1"
     inkscape:snap-midpoints="true"
     inkscape:snap-smooth-nodes="true"
     inkscape:snap-intersection-paths="true"
     inkscape:object-paths="true"
     inkscape:snap-bbox="true"
     inkscape:bbox-paths="true"
     inkscape:bbox-nodes="true"
     inkscape:snap-bbox-edge-midpoints="true"
     inkscape:snap-bbox-midpoints="true"
     inkscape:snap-object-midpoints="true" />
  <metadata
     id="metadata5">
    <rdf:RDF>
      <cc:Work
         rdf:about="">
        <dc:format>image/svg+xml</dc:format>
        <dc:type
           rdf:resource="http://purl.org/dc/dcmitype/StillImage" />
        <dc:title />
      </cc:Work>
    </rdf:RDF>
  </metadata>
  <g
     inkscape:label="Layer 1"
     inkscape:groupmode="layer"
     id="layer1">
    <g
       sodipodi:type="inkscape:box3d"
       id="g816"
       style="opacity:1;fill:#8c009b;fill-opacity:1;stroke:#000000;stroke-width:1.00157475;stroke-linecap:square;stroke-linejoin:round;stroke-miterlimit:4;stroke-dasharray:none;stroke-opacity:0;paint-order:stroke markers fill"
       inkscape:perspectiveID="#perspective814"
       inkscape:corner0="3.568161 : 0.27461649 : 0 : 1"
       inkscape:corner7="-0.63146167 : 0.021169809 : 0.25 : 1"
       inkscape:export-xdpi="25.299999"
       inkscape:export-ydpi="25.299999" />
    <path
       sodipodi:type="star"
       style="opacity:1;fill:none;fill-opacity:1;stroke:#000000;stroke-width:0.26499999;stroke-linecap:square;stroke-linejoin:round;stroke-miterlimit:4;stroke-dasharray:none;stroke-opacity:1;paint-order:stroke markers fill"
       id="path850"
       sodipodi:sides="23"
       sodipodi:cx="104.23512"
       sodipodi:cy="145.1909"
       sodipodi:r1="23.702753"
       sodipodi:r2="8.5329914"
       sodipodi:arg1="2.0899424"
       sodipodi:arg2="2.2265334"
       inkscape:flatsided="false"
       inkscape:rounded="0"
       inkscape:randomized="0"
       d="m 92.475265,165.77066 6.556921,-13.81652 -11.673185,9.88059 10.041424,-11.53512 -13.906063,6.3648 12.7812,-8.39823 -15.107591,2.37697 14.573053,-4.63847 -15.18866,-1.78716 15.28409,-0.5347 -14.143254,-5.81873 14.861575,3.60872 -12.048908,-9.41876 13.336845,7.48451 -9.06095,-12.32025 10.822983,10.8052 -5.400983,-14.308 7.506428,13.32452 -1.34045,-15.23458 3.63316,14.85562 2.8195,-15.03129 -0.50957,15.28495 6.77034,-13.7132 -4.6145,14.58066 10.21905,-11.37806 -8.37719,12.79499 12.90986,-8.19906 -11.51859,10.06038 14.64321,-4.41198 -13.80571,6.57963 15.29054,-0.29768 -15.06892,2.61091 14.80384,3.8387 -15.21454,-1.55146 13.2192,7.69037 -14.23176,-5.59876 10.65416,10.9717 -12.19349,-9.23083 7.29895,13.43929 -9.25087,-12.17829 3.40241,14.91017 -5.62216,-14.22254 -0.74648,15.27521 -1.57648,-15.21197 -4.839997,14.50736 2.586117,-15.07319 z"
       inkscape:transform-center-x="1.6828395"
       inkscape:transform-center-y="-3.146282"
       transform="matrix(2.108692,0,0,2.1102523,-134.32661,-140.42404)"
       inkscape:export-xdpi="25.299999"
       inkscape:export-ydpi="25.299999" />
    <rect
       style="opacity:1;fill:none;fill-opacity:1;stroke:#000000;stroke-width:0.26499999;stroke-linecap:square;stroke-linejoin:round;stroke-miterlimit:4;stroke-dasharray:none;stroke-opacity:0;paint-order:stroke markers fill"
       id="rect852"
       width="100"
       height="100"
       x="35.379093"
       y="116.10435"
       inkscape:export-xdpi="25.299999"
       inkscape:export-ydpi="25.299999" />
    <path
       style="opacity:1;fill:url(#radialGradient870);fill-opacity:1;stroke:none;stroke-width:1.01174331;stroke-linecap:square;stroke-linejoin:round;stroke-miterlimit:4;stroke-dasharray:none;stroke-opacity:1;paint-order:stroke markers fill"
       d="m 322.43799,745.44035 c -2.6886,-26.61242 -5.11366,-49.20674 -5.38902,-50.2096 -0.27535,-1.00285 -1.00185,-1.65629 -1.61443,-1.4521 -0.61258,0.20419 -8.03852,21.02573 -16.50207,46.27009 -8.46355,25.24435 -15.40955,44.98968 -15.43554,43.87851 -0.026,-1.11117 3.53094,-22.70318 7.90432,-47.98225 4.37337,-25.27906 7.60223,-46.33228 7.17526,-46.78493 -1.11478,-1.18179 -4.00429,2.8077 -30.80265,42.52854 -13.22655,19.60456 -24.23597,35.45694 -24.46538,35.22754 -0.22941,-0.22942 8.69658,-19.65336 19.83555,-43.16431 12.343,-26.05234 19.88931,-43.11053 19.32234,-43.67751 -0.56698,-0.56697 -15.20156,11.17827 -37.47183,30.07371 -20.09783,17.05221 -36.69982,30.84572 -36.89332,30.65222 -0.30187,-0.30187 17.63738,-21.21419 53.46317,-62.32355 5.70129,-6.54213 8.63696,-10.6674 8.02602,-11.27834 -0.61095,-0.61095 -16.26273,6.06321 -42.79151,18.24695 -23.00552,10.56563 -42.25599,19.06763 -42.77882,18.89336 -0.52284,-0.17428 16.27914,-11.61436 37.33773,-25.42238 21.05859,-13.80804 38.72018,-25.48992 39.24799,-25.95974 3.32548,-2.96014 -4.32829,-2.20709 -48.43682,4.76576 -26.11244,4.12793 -47.83318,7.38817 -48.26831,7.24496 -0.43513,-0.14321 19.93019,-6.83422 45.25627,-14.86891 25.32608,-8.03468 46.58845,-14.9429 47.24971,-15.35158 0.78677,-0.48625 0.8561,-1.05784 0.2006,-1.65381 -0.55094,-0.50092 -23.27557,-3.52627 -50.49918,-6.72302 -27.22362,-3.19675 -49.60428,-5.90521 -49.73481,-6.01881 -0.13053,-0.11361 17.37037,-0.75769 38.89088,-1.43131 53.05665,-1.66072 61.85663,-2.18766 61.85663,-3.7039 0,-0.67901 -20.22173,-9.55873 -44.93717,-19.73271 -24.71544,-10.17397 -44.79171,-18.6436 -44.61393,-18.82137 0.17778,-0.17778 20.74043,4.63926 45.69478,10.70454 52.51489,12.764 49.08575,12.03574 49.61205,10.53634 0.22521,-0.64163 -16.63458,-14.49382 -37.46621,-30.78265 -20.83163,-16.28884 -37.72748,-29.76427 -37.54634,-29.94541 0.18115,-0.18115 18.9747,10.14814 41.76346,22.95397 22.78876,12.80582 41.934,23.28332 42.54496,23.28332 0.61096,0 1.11084,-0.50908 1.11084,-1.13127 0,-0.6222 -12.387,-17.97378 -27.52666,-38.55907 -15.13966,-20.58528 -27.68991,-37.91802 -27.88945,-38.51721 -0.19955,-0.59918 14.80373,14.02498 33.3406,32.49815 18.53688,18.47316 34.26911,33.58757 34.96053,33.58757 0.69141,0 1.25712,-0.47497 1.25712,-1.05548 0,-0.5805 -7.54535,-21.0669 -16.76743,-45.52531 -9.22208,-24.45842 -16.60882,-44.62406 -16.41498,-44.81255 0.19385,-0.18849 10.10126,17.00228 22.01646,38.20171 25.68412,45.69694 26.23338,46.60948 27.37008,45.47277 0.49983,-0.49982 -0.8583,-20.51373 -3.14395,-46.33055 -2.21315,-24.99784 -3.89786,-46.58704 -3.74382,-47.976 0.15405,-1.38896 5.19223,17.70292 11.19598,42.42641 6.00374,24.72348 11.36668,46.04372 11.91764,47.3783 0.59582,1.44321 1.37127,2.05702 1.91359,1.5147 0.5015,-0.5015 4.91178,-22.27631 9.80063,-48.38846 6.68592,-35.71071 8.96292,-46.20726 9.18785,-42.3546 0.16447,2.81712 -0.38476,24.5969 -1.22051,48.39951 -0.83575,23.80261 -1.27983,43.66533 -0.98685,44.13938 0.29298,0.47405 0.96987,0.59171 1.50421,0.26146 0.53434,-0.33024 10.35036,-19.65839 21.81336,-42.95144 11.463,-23.29306 21.0405,-42.15234 21.28333,-41.90951 0.24283,0.24283 -5.76372,20.13178 -13.34789,44.19766 -7.58417,24.06589 -14.02435,44.55165 -14.31151,45.52393 -1.58396,5.36294 5.45695,-1.55519 34.11332,-33.51847 17.39956,-19.40743 31.80301,-35.11877 32.00769,-34.9141 0.20467,0.20468 -11.29253,18.18769 -25.54934,39.96226 -14.79568,22.59758 -25.68659,40.20222 -25.37423,41.01622 0.42414,1.10531 1.74376,0.66513 5.86644,-1.95682 58.21873,-37.02606 74.71132,-47.34716 75.07589,-46.98259 0.24098,0.24098 -15.35569,14.2065 -34.65927,31.03449 -19.30359,16.82799 -35.24441,31.22507 -35.42403,31.99354 -0.17964,0.76846 0.27493,1.39553 1.01015,1.3935 0.73521,-0.002 21.74065,-6.15252 46.67875,-13.66775 24.9381,-7.51522 45.49859,-13.50745 45.68998,-13.31607 0.19138,0.19139 -19.28517,9.69653 -43.28124,21.12253 -23.99607,11.426 -43.81872,21.34305 -44.05033,22.03787 -0.33498,1.00497 9.67608,1.14009 48.95195,0.66074 l 49.37305,-0.6026 -47.77705,8.43099 c -26.27738,4.63705 -48.02855,8.6825 -48.33594,8.98988 -0.30738,0.30739 -0.31461,0.95413 -0.0161,1.43719 0.29855,0.48308 21.52771,6.30907 47.1759,12.94665 25.64819,6.63759 45.94576,12.20747 45.10569,12.37752 -0.84005,0.17005 -21.76121,-1.76186 -46.49145,-4.29315 -50.36576,-5.15522 -49.17479,-5.07424 -49.12456,-3.33963 0.0201,0.69448 18.44584,11.93982 40.94608,24.98964 22.50024,13.04983 40.53331,23.85236 40.07349,24.00563 -0.45982,0.15327 -20.47427,-7.45551 -44.47654,-16.90842 -24.00226,-9.45291 -43.87006,-17.1871 -44.15065,-17.1871 -2.45375,0 3.91797,7.18828 32.72338,36.91698 18.27845,18.86433 33.09232,34.44778 32.91973,34.6299 -0.1726,0.18212 -17.14985,-12.43745 -37.72723,-28.04349 -20.57738,-15.60603 -38.15867,-28.66058 -39.06954,-29.01012 -1.23342,-0.47331 -1.56897,-0.13986 -1.31468,1.3065 0.18779,1.06809 10.27861,20.24941 22.42405,42.62514 12.14544,22.37574 21.90588,40.85989 21.68986,41.07591 -0.21603,0.21602 -13.30633,-16.63808 -29.08957,-37.45356 -15.78323,-20.8155 -29.18021,-37.67299 -29.77107,-37.46109 -1.54271,0.55326 -1.62308,0.14076 9.56922,49.11714 5.61529,24.57195 10.02506,44.86083 9.79948,45.0864 -0.22556,0.22556 -7.81183,-18.34124 -16.85836,-41.25958 -9.04655,-22.91834 -17.08728,-43.22754 -17.8683,-45.13156 -1.02617,-2.50163 -1.72591,-3.15598 -2.52277,-2.35912 -0.69451,0.69451 -1.98666,18.99051 -3.49055,49.42379 -1.31329,26.57657 -2.51127,48.95741 -2.66216,49.73518 -0.15089,0.77777 -2.47412,-20.35968 -5.16273,-46.97209 z"
       id="path862"
       inkscape:connector-curvature="0"
       transform="scale(0.26458333)"
       inkscape:export-xdpi="25.299999"
       inkscape:export-ydpi="25.299999" />
  </g>
</svg>
